<svg xmlns="http://www.w3.org/2000/svg" enable-background="new 0 0 36 36" viewBox="0 0 36 36"><path fill="#EFEFEF" d="M8.377,4.167c6.917,0,11.667-3.583,15-3.583S33.71,2.5,33.71,17.833s-9.417,17.583-13.083,17.583C3.46,35.417-3.873,4.167,8.377,4.167z"/><path fill="#A4AFC1" d="M23.25,29.837c-0.827,0-1.5-0.673-1.5-1.5s0.673-1.5,1.5-1.5s1.5,0.673,1.5,1.5S24.077,29.837,23.25,29.837z M23.25,27.837c-0.275,0-0.5,0.225-0.5,0.5s0.225,0.5,0.5,0.5s0.5-0.225,0.5-0.5S23.525,27.837,23.25,27.837z"/><rect width="1" height="2" x="17.875" y=".583" fill="#A4AFC1"/><rect width="2" height="1" x="20.375" y="4.083" fill="#A4AFC1"/><rect width="2" height="1" x="14.625" y="4.083" fill="#A4AFC1"/><path fill="#2FDF84" d="M18.437,6.75c-0.091,0.578-0.396,1.005-0.801,1.378c-2.435,2.242-3.72,5.643-3.875,9.075c-0.018,0.368-0.014,0.725,0.005,1.082c0.096,1.752,0.614,3.248,1.261,4.465c0.258,0.484,0.536,0.924,0.818,1.32c0.973,1.366,1.966,2.175,2.219,2.371c0.389,0.96,0.806,1.214,0.968,0.443c0.05-0.241,0.17-0.447,0.308-0.621c0.094-0.07,0.371-0.283,0.704-0.605c0.016-0.018,0.025-0.034,0.039-0.051c1.343-1.331,3.851-4.608,2.991-9.947c-1.115-5.218-3.745-6.933-4.028-7.59C18.785,7.68,18.563,7.205,18.437,6.75z"/><path fill="#00B871" d="M18.095,24.069c-0.282-0.395-0.56-0.835-0.817-1.319c-0.647-1.216-1.165-2.712-1.261-4.465c-0.02-0.356-0.023-0.714-0.005-1.082c0.144-3.213,1.293-6.384,3.434-8.617c-0.201-0.223-0.344-0.39-0.399-0.517c-0.261-0.389-0.484-0.864-0.609-1.319c-0.091,0.578-0.396,1.005-0.802,1.378c-2.435,2.242-3.72,5.643-3.875,9.075c-0.018,0.368-0.014,0.726,0.005,1.082c0.096,1.752,0.614,3.248,1.261,4.465c0.258,0.484,0.536,0.924,0.817,1.319c0.973,1.366,1.966,2.174,2.219,2.371c0.389,0.96,0.806,1.214,0.968,0.443c0.051-0.241,0.17-0.447,0.308-0.621c0.062-0.046,0.208-0.16,0.392-0.321C19.297,25.535,18.693,24.909,18.095,24.069z"/><path d="M18.986,30c-0.085,0-0.17-0.015-0.251-0.043l-0.568-0.202c-0.305-0.108-0.506-0.4-0.499-0.723c0.008-0.384-0.022-1.451-0.237-2.139c-0.428-0.354-1.322-1.161-2.196-2.389c-0.32-0.449-0.613-0.922-0.869-1.402c-0.803-1.509-1.256-3.115-1.348-4.776c-0.021-0.382-0.023-0.765-0.005-1.159c0.172-3.843,1.672-7.339,4.115-9.591c0.345-0.317,0.515-0.6,0.568-0.942c0.056-0.35,0.347-0.613,0.699-0.633c0.377-0.026,0.672,0.21,0.766,0.551c0.102,0.369,0.286,0.77,0.508,1.099c0.026,0.039,0.049,0.08,0.067,0.123c0.032,0.054,0.224,0.264,0.377,0.432c0.905,0.996,2.79,3.067,3.694,7.298c0.929,5.757-1.865,9.302-3.157,10.597c-0.017,0.021-0.035,0.044-0.045,0.055c-0.322,0.315-0.582,0.527-0.727,0.641c-0.059,0.085-0.096,0.164-0.111,0.239c-0.104,0.489-0.075,1.585-0.033,2.161c0.019,0.253-0.092,0.498-0.294,0.651C19.309,29.947,19.148,30,18.986,30z M18.39,8.435C18.312,8.518,18.231,8.6,18.144,8.68c-2.154,1.985-3.479,5.104-3.633,8.557c-0.017,0.345-0.014,0.677,0.005,1.008c0.079,1.441,0.475,2.839,1.174,4.153c0.226,0.424,0.483,0.84,0.766,1.236c0.928,1.303,1.886,2.072,2.068,2.213c0.041,0.032,0.079,0.068,0.112,0.108c0.036-0.054,0.075-0.106,0.117-0.159c0.04-0.051,0.087-0.096,0.138-0.134c0.081-0.061,0.312-0.238,0.594-0.508c0.023-0.029,0.051-0.062,0.071-0.082c1.377-1.364,3.569-4.386,2.778-9.294c-0.812-3.796-2.45-5.597-3.33-6.563c-0.29-0.318-0.491-0.539-0.61-0.774C18.392,8.438,18.391,8.437,18.39,8.435z"/></svg>